<?xml version="1.0" encoding="utf-8"?>
<!-- Generator: Adobe Illustrator 16.0.0, SVG Export Plug-In . SVG Version: 6.00 Build 0)  -->
<!DOCTYPE svg PUBLIC "-//W3C//DTD SVG 1.1//EN" "http://www.w3.org/Graphics/SVG/1.1/DTD/svg11.dtd">
<svg version="1.1" id="Layer_1" xmlns="http://www.w3.org/2000/svg" xmlns:xlink="http://www.w3.org/1999/xlink" x="0px" y="0px"
	 width="20px" height="20px" viewBox="0 0 20 20" enable-background="new 0 0 20 20" xml:space="preserve">
<g>
	<polygon fill="#FFFFFF" points="12,17 12,12 17,12 15,14 19,18 18,19 14,15 	"/>
	<polygon fill="#FFFFFF" points="12,8 12,3 14,5 18,1 19,2 15,6 17,8 	"/>
	<polygon fill="#FFFFFF" points="8,8 8,3 6,5 2,1 1,2 5,6 3,8 	"/>
	<polygon fill="#FFFFFF" points="8,12 3,12 5,14 1,18 2,19 6,15 8,17 	"/>
</g>
</svg>
