<?xml version="1.0" encoding="utf-8"?>
<!-- Generator: Adobe Illustrator 16.0.0, SVG Export Plug-In . SVG Version: 6.00 Build 0)  -->
<!DOCTYPE svg PUBLIC "-//W3C//DTD SVG 1.1//EN" "http://www.w3.org/Graphics/SVG/1.1/DTD/svg11.dtd">
<svg version="1.1" id="Layer_1" xmlns="http://www.w3.org/2000/svg" xmlns:xlink="http://www.w3.org/1999/xlink" x="0px" y="0px"
	 width="20px" height="20px" viewBox="0 0 20 20" enable-background="new 0 0 20 20" xml:space="preserve">
<g>
	<polygon fill="#FFFFFF" points="2,7 2,2 7,2 5,4 9,8 8,9 4,5 	"/>
	<polygon fill="#FFFFFF" points="2,18 2,13 4,15 8,11 9,12 5,16 7,18 	"/>
	<polygon fill="#FFFFFF" points="18,18 18,13 16,15 12,11 11,12 15,16 13,18 	"/>
	<polygon fill="#FFFFFF" points="18,2 13,2 15,4 11,8 12,9 16,5 18,7 	"/>
</g>
</svg>
